# Blender v2.90.0 OBJ File: 'light.blend'
# www.blender.org
mtllib light.mtl
o Plane
v -21.861591 0.255695 21.861591
v 21.861591 0.255695 21.861591
v -21.861591 0.255695 -21.861591
v 21.861591 0.255695 -21.861591
v -21.861591 19.375164 21.861591
v -21.861591 19.375164 -21.861591
v 21.861591 19.375164 -21.861591
vt 0.000000 0.000000
vt 1.000000 0.000000
vt 1.000000 1.000000
vt 0.000000 1.000000
vt 1.000000 1.000000
vt 0.000000 1.000000
vt 0.000000 0.000000
vn 0.0000 1.0000 0.0000
vn 0.0000 0.0000 1.0000
vn 1.0000 0.0000 0.0000
vn 0.0000 -1.0000 0.0000
usemtl Material.005
s off
f 1/1/1 2/2/1 4/3/1 3/4/1
f 3/4/2 4/3/2 7/5/2 6/6/2
f 1/1/3 3/4/3 6/6/3 5/7/3
usemtl Material.006
f 6/6/4 7/5/4 5/7/4
o Plane.001
v -7.045041 18.943306 -5.843976
v -1.703300 18.943306 -5.843976
v -7.045041 18.943306 -7.735134
v -1.703300 18.943306 -7.735134
v -7.540927 18.951101 -5.789555
v -7.540927 19.599133 -5.789555
v -7.540927 18.951103 -7.789555
v -7.540927 19.599133 -7.789555
v -1.688709 18.951101 -5.789555
v -1.688709 19.599133 -5.789555
v -1.688709 18.951103 -7.789555
v -1.688709 19.599133 -7.789555
vt 0.000000 0.000000
vt 1.000000 0.000000
vt 1.000000 1.000000
vt 0.000000 1.000000
vt 0.375000 0.000000
vt 0.625000 0.000000
vt 0.625000 0.250000
vt 0.375000 0.250000
vt 0.625000 0.500000
vt 0.375000 0.500000
vt 0.625000 0.750000
vt 0.375000 0.750000
vt 0.625000 1.000000
vt 0.375000 1.000000
vt 0.875000 0.500000
vt 0.875000 0.750000
vn 0.0000 1.0000 0.0000
vn -1.0000 0.0000 0.0000
vn 0.0000 0.0000 -1.0000
vn 1.0000 -0.0000 0.0000
vn 0.0000 -0.0000 1.0000
usemtl Material.002
s off
f 8/8/5 9/9/5 11/10/5 10/11/5
usemtl Material.001
f 12/12/6 13/13/6 15/14/6 14/15/6
f 14/15/7 15/14/7 19/16/7 18/17/7
f 18/17/8 19/16/8 17/18/8 16/19/8
f 16/19/9 17/18/9 13/20/9 12/21/9
f 19/16/5 15/22/5 13/23/5 17/18/5
o Plane.002
v -7.140253 19.070156 -6.161978
v -2.089259 19.070156 -6.161978
v -7.140253 19.070156 -7.417132
v -2.089259 19.070156 -7.417132
vt 0.000000 0.000000
vt 1.000000 0.000000
vt 1.000000 1.000000
vt 0.000000 1.000000
vn 0.0000 1.0000 0.0000
usemtl Material.003
s off
f 20/24/10 21/25/10 23/26/10 22/27/10
